<svg class="rich-terminal" viewBox="0 0 750 1270.0" xmlns="http://www.w3.org/2000/svg">
    <!-- Generated with Rich https://www.textualize.io -->
    <style>

    @font-face {
        font-family: "Fira Code";
        src: local("FiraCode-Regular"),
                url("https://cdnjs.cloudflare.com/ajax/libs/firacode/6.2.0/woff2/FiraCode-Regular.woff2") format("woff2"),
                url("https://cdnjs.cloudflare.com/ajax/libs/firacode/6.2.0/woff/FiraCode-Regular.woff") format("woff");
        font-style: normal;
        font-weight: 400;
    }
    @font-face {
        font-family: "Fira Code";
        src: local("FiraCode-Bold"),
                url("https://cdnjs.cloudflare.com/ajax/libs/firacode/6.2.0/woff2/FiraCode-Bold.woff2") format("woff2"),
                url("https://cdnjs.cloudflare.com/ajax/libs/firacode/6.2.0/woff/FiraCode-Bold.woff") format("woff");
        font-style: bold;
        font-weight: 700;
    }

    .terminal-matrix {
        font-family: Fira Code, monospace;
        font-size: 20px;
        line-height: 24.4px;
        font-variant-east-asian: full-width;
    }

    .terminal-title {
        font-size: 18px;
        font-weight: bold;
        font-family: arial;
    }

    .terminal-r1 { fill: #ffffff }
.terminal-r2 { fill: #b5b6ba }
.terminal-r3 { fill: #8bfba7;font-weight: bold }
.terminal-r4 { fill: #ff8e8e;font-weight: bold }
.terminal-r5 { fill: #c5c8c6 }
.terminal-r6 { fill: #51535b }
.terminal-r7 { fill: #494a53 }
.terminal-r8 { fill: #707076 }
.terminal-r9 { fill: #f8f8f2 }
.terminal-r10 { fill: #8a5258 }
.terminal-r11 { fill: #dd7d7e }
.terminal-r12 { fill: #ff8e8e }
.terminal-r13 { fill: #ffa6d9 }
.terminal-r14 { fill: #ffd09d;text-decoration: underline; }
.terminal-r15 { fill: #83e79c }
.terminal-r16 { fill: #4f8a65 }
.terminal-r17 { fill: #7ada94 }
.terminal-r18 { fill: #8bfba7 }
.terminal-r19 { fill: #d3b7fb }
.terminal-r20 { fill: #79d693;font-style: italic; }
.terminal-r21 { fill: #82e89d }
.terminal-r22 { fill: #acadb1 }
.terminal-r23 { fill: #d3b7fb;font-weight: bold }
.terminal-r24 { fill: #ffd09d }
.terminal-r25 { fill: #89e89d }
.terminal-r26 { fill: #83ee9e }
    </style>

    <defs>
    <clipPath id="terminal-clip-terminal">
      <rect x="0" y="0" width="731.0" height="1219.0" />
    </clipPath>
    <clipPath id="terminal-line-0">
    <rect x="0" y="1.5" width="732" height="24.65"/>
            </clipPath>
<clipPath id="terminal-line-1">
    <rect x="0" y="25.9" width="732" height="24.65"/>
            </clipPath>
<clipPath id="terminal-line-2">
    <rect x="0" y="50.3" width="732" height="24.65"/>
            </clipPath>
<clipPath id="terminal-line-3">
    <rect x="0" y="74.7" width="732" height="24.65"/>
            </clipPath>
<clipPath id="terminal-line-4">
    <rect x="0" y="99.1" width="732" height="24.65"/>
            </clipPath>
<clipPath id="terminal-line-5">
    <rect x="0" y="123.5" width="732" height="24.65"/>
            </clipPath>
<clipPath id="terminal-line-6">
    <rect x="0" y="147.9" width="732" height="24.65"/>
            </clipPath>
<clipPath id="terminal-line-7">
    <rect x="0" y="172.3" width="732" height="24.65"/>
            </clipPath>
<clipPath id="terminal-line-8">
    <rect x="0" y="196.7" width="732" height="24.65"/>
            </clipPath>
<clipPath id="terminal-line-9">
    <rect x="0" y="221.1" width="732" height="24.65"/>
            </clipPath>
<clipPath id="terminal-line-10">
    <rect x="0" y="245.5" width="732" height="24.65"/>
            </clipPath>
<clipPath id="terminal-line-11">
    <rect x="0" y="269.9" width="732" height="24.65"/>
            </clipPath>
<clipPath id="terminal-line-12">
    <rect x="0" y="294.3" width="732" height="24.65"/>
            </clipPath>
<clipPath id="terminal-line-13">
    <rect x="0" y="318.7" width="732" height="24.65"/>
            </clipPath>
<clipPath id="terminal-line-14">
    <rect x="0" y="343.1" width="732" height="24.65"/>
            </clipPath>
<clipPath id="terminal-line-15">
    <rect x="0" y="367.5" width="732" height="24.65"/>
            </clipPath>
<clipPath id="terminal-line-16">
    <rect x="0" y="391.9" width="732" height="24.65"/>
            </clipPath>
<clipPath id="terminal-line-17">
    <rect x="0" y="416.3" width="732" height="24.65"/>
            </clipPath>
<clipPath id="terminal-line-18">
    <rect x="0" y="440.7" width="732" height="24.65"/>
            </clipPath>
<clipPath id="terminal-line-19">
    <rect x="0" y="465.1" width="732" height="24.65"/>
            </clipPath>
<clipPath id="terminal-line-20">
    <rect x="0" y="489.5" width="732" height="24.65"/>
            </clipPath>
<clipPath id="terminal-line-21">
    <rect x="0" y="513.9" width="732" height="24.65"/>
            </clipPath>
<clipPath id="terminal-line-22">
    <rect x="0" y="538.3" width="732" height="24.65"/>
            </clipPath>
<clipPath id="terminal-line-23">
    <rect x="0" y="562.7" width="732" height="24.65"/>
            </clipPath>
<clipPath id="terminal-line-24">
    <rect x="0" y="587.1" width="732" height="24.65"/>
            </clipPath>
<clipPath id="terminal-line-25">
    <rect x="0" y="611.5" width="732" height="24.65"/>
            </clipPath>
<clipPath id="terminal-line-26">
    <rect x="0" y="635.9" width="732" height="24.65"/>
            </clipPath>
<clipPath id="terminal-line-27">
    <rect x="0" y="660.3" width="732" height="24.65"/>
            </clipPath>
<clipPath id="terminal-line-28">
    <rect x="0" y="684.7" width="732" height="24.65"/>
            </clipPath>
<clipPath id="terminal-line-29">
    <rect x="0" y="709.1" width="732" height="24.65"/>
            </clipPath>
<clipPath id="terminal-line-30">
    <rect x="0" y="733.5" width="732" height="24.65"/>
            </clipPath>
<clipPath id="terminal-line-31">
    <rect x="0" y="757.9" width="732" height="24.65"/>
            </clipPath>
<clipPath id="terminal-line-32">
    <rect x="0" y="782.3" width="732" height="24.65"/>
            </clipPath>
<clipPath id="terminal-line-33">
    <rect x="0" y="806.7" width="732" height="24.65"/>
            </clipPath>
<clipPath id="terminal-line-34">
    <rect x="0" y="831.1" width="732" height="24.65"/>
            </clipPath>
<clipPath id="terminal-line-35">
    <rect x="0" y="855.5" width="732" height="24.65"/>
            </clipPath>
<clipPath id="terminal-line-36">
    <rect x="0" y="879.9" width="732" height="24.65"/>
            </clipPath>
<clipPath id="terminal-line-37">
    <rect x="0" y="904.3" width="732" height="24.65"/>
            </clipPath>
<clipPath id="terminal-line-38">
    <rect x="0" y="928.7" width="732" height="24.65"/>
            </clipPath>
<clipPath id="terminal-line-39">
    <rect x="0" y="953.1" width="732" height="24.65"/>
            </clipPath>
<clipPath id="terminal-line-40">
    <rect x="0" y="977.5" width="732" height="24.65"/>
            </clipPath>
<clipPath id="terminal-line-41">
    <rect x="0" y="1001.9" width="732" height="24.65"/>
            </clipPath>
<clipPath id="terminal-line-42">
    <rect x="0" y="1026.3" width="732" height="24.65"/>
            </clipPath>
<clipPath id="terminal-line-43">
    <rect x="0" y="1050.7" width="732" height="24.65"/>
            </clipPath>
<clipPath id="terminal-line-44">
    <rect x="0" y="1075.1" width="732" height="24.65"/>
            </clipPath>
<clipPath id="terminal-line-45">
    <rect x="0" y="1099.5" width="732" height="24.65"/>
            </clipPath>
<clipPath id="terminal-line-46">
    <rect x="0" y="1123.9" width="732" height="24.65"/>
            </clipPath>
<clipPath id="terminal-line-47">
    <rect x="0" y="1148.3" width="732" height="24.65"/>
            </clipPath>
<clipPath id="terminal-line-48">
    <rect x="0" y="1172.7" width="732" height="24.65"/>
            </clipPath>
    </defs>

    <rect fill="#292929" stroke="rgba(255,255,255,0.35)" stroke-width="1" x="1" y="1" width="748" height="1268" rx="8"/><text class="terminal-title" fill="#c5c8c6" text-anchor="middle" x="374" y="27">DiffApp</text>
            <g transform="translate(26,22)">
            <circle cx="0" cy="0" r="7" fill="#ff5f57"/>
            <circle cx="22" cy="0" r="7" fill="#febc2e"/>
            <circle cx="44" cy="0" r="7" fill="#28c840"/>
            </g>
        
    <g transform="translate(9, 41)" clip-path="url(#terminal-clip-terminal)">
    <rect fill="#282a36" x="0" y="1.5" width="36.6" height="24.65" shape-rendering="crispEdges"/><rect fill="#282a36" x="36.6" y="1.5" width="109.8" height="24.65" shape-rendering="crispEdges"/><rect fill="#282a36" x="146.4" y="1.5" width="24.4" height="24.65" shape-rendering="crispEdges"/><rect fill="#282a36" x="170.8" y="1.5" width="24.4" height="24.65" shape-rendering="crispEdges"/><rect fill="#282a36" x="195.2" y="1.5" width="24.4" height="24.65" shape-rendering="crispEdges"/><rect fill="#282a36" x="219.6" y="1.5" width="24.4" height="24.65" shape-rendering="crispEdges"/><rect fill="#282a36" x="244" y="1.5" width="12.2" height="24.65" shape-rendering="crispEdges"/><rect fill="#282a36" x="256.2" y="1.5" width="475.8" height="24.65" shape-rendering="crispEdges"/><rect fill="#282a36" x="0" y="25.9" width="732" height="24.65" shape-rendering="crispEdges"/><rect fill="#363742" x="0" y="50.3" width="12.2" height="24.65" shape-rendering="crispEdges"/><rect fill="#363742" x="12.2" y="50.3" width="24.4" height="24.65" shape-rendering="crispEdges"/><rect fill="#363742" x="36.6" y="50.3" width="36.6" height="24.65" shape-rendering="crispEdges"/><rect fill="#30323d" x="73.2" y="50.3" width="658.8" height="24.65" shape-rendering="crispEdges"/><rect fill="#593941" x="0" y="74.7" width="12.2" height="24.65" shape-rendering="crispEdges"/><rect fill="#593941" x="12.2" y="74.7" width="24.4" height="24.65" shape-rendering="crispEdges"/><rect fill="#593941" x="36.6" y="74.7" width="36.6" height="24.65" shape-rendering="crispEdges"/><rect fill="#44353f" x="73.2" y="74.7" width="36.6" height="24.65" shape-rendering="crispEdges"/><rect fill="#44353f" x="109.8" y="74.7" width="36.6" height="24.65" shape-rendering="crispEdges"/><rect fill="#44353f" x="146.4" y="74.7" width="12.2" height="24.65" shape-rendering="crispEdges"/><rect fill="#44353f" x="158.6" y="74.7" width="61" height="24.65" shape-rendering="crispEdges"/><rect fill="#44353f" x="219.6" y="74.7" width="36.6" height="24.65" shape-rendering="crispEdges"/><rect fill="#44353f" x="256.2" y="74.7" width="475.8" height="24.65" shape-rendering="crispEdges"/><rect fill="#593941" x="0" y="99.1" width="12.2" height="24.65" shape-rendering="crispEdges"/><rect fill="#593941" x="12.2" y="99.1" width="24.4" height="24.65" shape-rendering="crispEdges"/><rect fill="#593941" x="36.6" y="99.1" width="36.6" height="24.65" shape-rendering="crispEdges"/><rect fill="#44353f" x="73.2" y="99.1" width="36.6" height="24.65" shape-rendering="crispEdges"/><rect fill="#44353f" x="109.8" y="99.1" width="48.8" height="24.65" shape-rendering="crispEdges"/><rect fill="#44353f" x="158.6" y="99.1" width="61" height="24.65" shape-rendering="crispEdges"/><rect fill="#44353f" x="219.6" y="99.1" width="12.2" height="24.65" shape-rendering="crispEdges"/><rect fill="#44353f" x="231.8" y="99.1" width="12.2" height="24.65" shape-rendering="crispEdges"/><rect fill="#44353f" x="244" y="99.1" width="73.2" height="24.65" shape-rendering="crispEdges"/><rect fill="#44353f" x="317.2" y="99.1" width="12.2" height="24.65" shape-rendering="crispEdges"/><rect fill="#44353f" x="329.4" y="99.1" width="402.6" height="24.65" shape-rendering="crispEdges"/><rect fill="#365a49" x="0" y="123.5" width="12.2" height="24.65" shape-rendering="crispEdges"/><rect fill="#365a49" x="12.2" y="123.5" width="24.4" height="24.65" shape-rendering="crispEdges"/><rect fill="#365a49" x="36.6" y="123.5" width="36.6" height="24.65" shape-rendering="crispEdges"/><rect fill="#334643" x="73.2" y="123.5" width="36.6" height="24.65" shape-rendering="crispEdges"/><rect fill="#334643" x="109.8" y="123.5" width="36.6" height="24.65" shape-rendering="crispEdges"/><rect fill="#334643" x="146.4" y="123.5" width="12.2" height="24.65" shape-rendering="crispEdges"/><rect fill="#334643" x="158.6" y="123.5" width="61" height="24.65" shape-rendering="crispEdges"/><rect fill="#334643" x="219.6" y="123.5" width="12.2" height="24.65" shape-rendering="crispEdges"/><rect fill="#334643" x="231.8" y="123.5" width="48.8" height="24.65" shape-rendering="crispEdges"/><rect fill="#334643" x="280.6" y="123.5" width="12.2" height="24.65" shape-rendering="crispEdges"/><rect fill="#334643" x="292.8" y="123.5" width="36.6" height="24.65" shape-rendering="crispEdges"/><rect fill="#334643" x="329.4" y="123.5" width="24.4" height="24.65" shape-rendering="crispEdges"/><rect fill="#334643" x="353.8" y="123.5" width="378.2" height="24.65" shape-rendering="crispEdges"/><rect fill="#365a49" x="0" y="147.9" width="12.2" height="24.65" shape-rendering="crispEdges"/><rect fill="#365a49" x="12.2" y="147.9" width="24.4" height="24.65" shape-rendering="crispEdges"/><rect fill="#365a49" x="36.6" y="147.9" width="36.6" height="24.65" shape-rendering="crispEdges"/><rect fill="#334643" x="73.2" y="147.9" width="36.6" height="24.65" shape-rendering="crispEdges"/><rect fill="#334643" x="109.8" y="147.9" width="48.8" height="24.65" shape-rendering="crispEdges"/><rect fill="#334643" x="158.6" y="147.9" width="219.6" height="24.65" shape-rendering="crispEdges"/><rect fill="#334643" x="378.2" y="147.9" width="12.2" height="24.65" shape-rendering="crispEdges"/><rect fill="#334643" x="390.4" y="147.9" width="341.6" height="24.65" shape-rendering="crispEdges"/><rect fill="#365a49" x="0" y="172.3" width="12.2" height="24.65" shape-rendering="crispEdges"/><rect fill="#365a49" x="12.2" y="172.3" width="24.4" height="24.65" shape-rendering="crispEdges"/><rect fill="#365a49" x="36.6" y="172.3" width="36.6" height="24.65" shape-rendering="crispEdges"/><rect fill="#334643" x="73.2" y="172.3" width="36.6" height="24.65" shape-rendering="crispEdges"/><rect fill="#334643" x="109.8" y="172.3" width="48.8" height="24.65" shape-rendering="crispEdges"/><rect fill="#334643" x="158.6" y="172.3" width="61" height="24.65" shape-rendering="crispEdges"/><rect fill="#334643" x="219.6" y="172.3" width="12.2" height="24.65" shape-rendering="crispEdges"/><rect fill="#334643" x="231.8" y="172.3" width="12.2" height="24.65" shape-rendering="crispEdges"/><rect fill="#334643" x="244" y="172.3" width="12.2" height="24.65" shape-rendering="crispEdges"/><rect fill="#334643" x="256.2" y="172.3" width="85.4" height="24.65" shape-rendering="crispEdges"/><rect fill="#334643" x="341.6" y="172.3" width="12.2" height="24.65" shape-rendering="crispEdges"/><rect fill="#334643" x="353.8" y="172.3" width="48.8" height="24.65" shape-rendering="crispEdges"/><rect fill="#334643" x="402.6" y="172.3" width="12.2" height="24.65" shape-rendering="crispEdges"/><rect fill="#334643" x="414.8" y="172.3" width="12.2" height="24.65" shape-rendering="crispEdges"/><rect fill="#334643" x="427" y="172.3" width="12.2" height="24.65" shape-rendering="crispEdges"/><rect fill="#334643" x="439.2" y="172.3" width="12.2" height="24.65" shape-rendering="crispEdges"/><rect fill="#334643" x="451.4" y="172.3" width="280.6" height="24.65" shape-rendering="crispEdges"/><rect fill="#363742" x="0" y="196.7" width="12.2" height="24.65" shape-rendering="crispEdges"/><rect fill="#363742" x="12.2" y="196.7" width="24.4" height="24.65" shape-rendering="crispEdges"/><rect fill="#363742" x="36.6" y="196.7" width="36.6" height="24.65" shape-rendering="crispEdges"/><rect fill="#30323d" x="73.2" y="196.7" width="658.8" height="24.65" shape-rendering="crispEdges"/><rect fill="#593941" x="0" y="221.1" width="12.2" height="24.65" shape-rendering="crispEdges"/><rect fill="#593941" x="12.2" y="221.1" width="24.4" height="24.65" shape-rendering="crispEdges"/><rect fill="#593941" x="36.6" y="221.1" width="36.6" height="24.65" shape-rendering="crispEdges"/><rect fill="#44353f" x="73.2" y="221.1" width="36.6" height="24.65" shape-rendering="crispEdges"/><rect fill="#44353f" x="109.8" y="221.1" width="61" height="24.65" shape-rendering="crispEdges"/><rect fill="#44353f" x="170.8" y="221.1" width="24.4" height="24.65" shape-rendering="crispEdges"/><rect fill="#44353f" x="195.2" y="221.1" width="536.8" height="24.65" shape-rendering="crispEdges"/><rect fill="#365a49" x="0" y="245.5" width="12.2" height="24.65" shape-rendering="crispEdges"/><rect fill="#365a49" x="12.2" y="245.5" width="24.4" height="24.65" shape-rendering="crispEdges"/><rect fill="#365a49" x="36.6" y="245.5" width="36.6" height="24.65" shape-rendering="crispEdges"/><rect fill="#334643" x="73.2" y="245.5" width="36.6" height="24.65" shape-rendering="crispEdges"/><rect fill="#334643" x="109.8" y="245.5" width="61" height="24.65" shape-rendering="crispEdges"/><rect fill="#334643" x="170.8" y="245.5" width="12.2" height="24.65" shape-rendering="crispEdges"/><rect fill="#3b7c53" x="183" y="245.5" width="12.2" height="24.65" shape-rendering="crispEdges"/><rect fill="#3b7c53" x="195.2" y="245.5" width="48.8" height="24.65" shape-rendering="crispEdges"/><rect fill="#3b7c53" x="244" y="245.5" width="12.2" height="24.65" shape-rendering="crispEdges"/><rect fill="#334643" x="256.2" y="245.5" width="12.2" height="24.65" shape-rendering="crispEdges"/><rect fill="#334643" x="268.4" y="245.5" width="463.6" height="24.65" shape-rendering="crispEdges"/><rect fill="#363742" x="0" y="269.9" width="12.2" height="24.65" shape-rendering="crispEdges"/><rect fill="#363742" x="12.2" y="269.9" width="24.4" height="24.65" shape-rendering="crispEdges"/><rect fill="#363742" x="36.6" y="269.9" width="36.6" height="24.65" shape-rendering="crispEdges"/><rect fill="#30323d" x="73.2" y="269.9" width="658.8" height="24.65" shape-rendering="crispEdges"/><rect fill="#363742" x="0" y="294.3" width="12.2" height="24.65" shape-rendering="crispEdges"/><rect fill="#363742" x="12.2" y="294.3" width="24.4" height="24.65" shape-rendering="crispEdges"/><rect fill="#363742" x="36.6" y="294.3" width="36.6" height="24.65" shape-rendering="crispEdges"/><rect fill="#30323d" x="73.2" y="294.3" width="36.6" height="24.65" shape-rendering="crispEdges"/><rect fill="#30323d" x="109.8" y="294.3" width="463.6" height="24.65" shape-rendering="crispEdges"/><rect fill="#30323d" x="573.4" y="294.3" width="158.6" height="24.65" shape-rendering="crispEdges"/><rect fill="#363742" x="0" y="318.7" width="12.2" height="24.65" shape-rendering="crispEdges"/><rect fill="#363742" x="12.2" y="318.7" width="24.4" height="24.65" shape-rendering="crispEdges"/><rect fill="#363742" x="36.6" y="318.7" width="36.6" height="24.65" shape-rendering="crispEdges"/><rect fill="#30323d" x="73.2" y="318.7" width="36.6" height="24.65" shape-rendering="crispEdges"/><rect fill="#30323d" x="109.8" y="318.7" width="268.4" height="24.65" shape-rendering="crispEdges"/><rect fill="#30323d" x="378.2" y="318.7" width="353.8" height="24.65" shape-rendering="crispEdges"/><rect fill="#282a36" x="0" y="343.1" width="341.6" height="24.65" shape-rendering="crispEdges"/><rect fill="#282a36" x="341.6" y="343.1" width="12.2" height="24.65" shape-rendering="crispEdges"/><rect fill="#282a36" x="353.8" y="343.1" width="378.2" height="24.65" shape-rendering="crispEdges"/><rect fill="#363742" x="0" y="367.5" width="12.2" height="24.65" shape-rendering="crispEdges"/><rect fill="#363742" x="12.2" y="367.5" width="36.6" height="24.65" shape-rendering="crispEdges"/><rect fill="#363742" x="48.8" y="367.5" width="48.8" height="24.65" shape-rendering="crispEdges"/><rect fill="#30323d" x="97.6" y="367.5" width="36.6" height="24.65" shape-rendering="crispEdges"/><rect fill="#30323d" x="134.2" y="367.5" width="597.8" height="24.65" shape-rendering="crispEdges"/><rect fill="#363742" x="0" y="391.9" width="12.2" height="24.65" shape-rendering="crispEdges"/><rect fill="#363742" x="12.2" y="391.9" width="36.6" height="24.65" shape-rendering="crispEdges"/><rect fill="#363742" x="48.8" y="391.9" width="48.8" height="24.65" shape-rendering="crispEdges"/><rect fill="#30323d" x="97.6" y="391.9" width="36.6" height="24.65" shape-rendering="crispEdges"/><rect fill="#30323d" x="134.2" y="391.9" width="146.4" height="24.65" shape-rendering="crispEdges"/><rect fill="#30323d" x="280.6" y="391.9" width="451.4" height="24.65" shape-rendering="crispEdges"/><rect fill="#363742" x="0" y="416.3" width="12.2" height="24.65" shape-rendering="crispEdges"/><rect fill="#363742" x="12.2" y="416.3" width="36.6" height="24.65" shape-rendering="crispEdges"/><rect fill="#363742" x="48.8" y="416.3" width="48.8" height="24.65" shape-rendering="crispEdges"/><rect fill="#30323d" x="97.6" y="416.3" width="634.4" height="24.65" shape-rendering="crispEdges"/><rect fill="#363742" x="0" y="440.7" width="12.2" height="24.65" shape-rendering="crispEdges"/><rect fill="#363742" x="12.2" y="440.7" width="36.6" height="24.65" shape-rendering="crispEdges"/><rect fill="#363742" x="48.8" y="440.7" width="48.8" height="24.65" shape-rendering="crispEdges"/><rect fill="#30323d" x="97.6" y="440.7" width="36.6" height="24.65" shape-rendering="crispEdges"/><rect fill="#30323d" x="134.2" y="440.7" width="36.6" height="24.65" shape-rendering="crispEdges"/><rect fill="#30323d" x="170.8" y="440.7" width="12.2" height="24.65" shape-rendering="crispEdges"/><rect fill="#30323d" x="183" y="440.7" width="12.2" height="24.65" shape-rendering="crispEdges"/><rect fill="#30323d" x="195.2" y="440.7" width="12.2" height="24.65" shape-rendering="crispEdges"/><rect fill="#30323d" x="207.4" y="440.7" width="24.4" height="24.65" shape-rendering="crispEdges"/><rect fill="#30323d" x="231.8" y="440.7" width="12.2" height="24.65" shape-rendering="crispEdges"/><rect fill="#30323d" x="244" y="440.7" width="61" height="24.65" shape-rendering="crispEdges"/><rect fill="#30323d" x="305" y="440.7" width="12.2" height="24.65" shape-rendering="crispEdges"/><rect fill="#30323d" x="317.2" y="440.7" width="24.4" height="24.65" shape-rendering="crispEdges"/><rect fill="#30323d" x="341.6" y="440.7" width="24.4" height="24.65" shape-rendering="crispEdges"/><rect fill="#30323d" x="366" y="440.7" width="366" height="24.65" shape-rendering="crispEdges"/><rect fill="#593941" x="0" y="465.1" width="12.2" height="24.65" shape-rendering="crispEdges"/><rect fill="#593941" x="12.2" y="465.1" width="36.6" height="24.65" shape-rendering="crispEdges"/><rect fill="#593941" x="48.8" y="465.1" width="48.8" height="24.65" shape-rendering="crispEdges"/><rect fill="#44353f" x="97.6" y="465.1" width="36.6" height="24.65" shape-rendering="crispEdges"/><rect fill="#44353f" x="134.2" y="465.1" width="48.8" height="24.65" shape-rendering="crispEdges"/><rect fill="#44353f" x="183" y="465.1" width="61" height="24.65" shape-rendering="crispEdges"/><rect fill="#44353f" x="244" y="465.1" width="12.2" height="24.65" shape-rendering="crispEdges"/><rect fill="#44353f" x="256.2" y="465.1" width="12.2" height="24.65" shape-rendering="crispEdges"/><rect fill="#7b3e45" x="268.4" y="465.1" width="36.6" height="24.65" shape-rendering="crispEdges"/><rect fill="#44353f" x="305" y="465.1" width="12.2" height="24.65" shape-rendering="crispEdges"/><rect fill="#44353f" x="317.2" y="465.1" width="12.2" height="24.65" shape-rendering="crispEdges"/><rect fill="#44353f" x="329.4" y="465.1" width="402.6" height="24.65" shape-rendering="crispEdges"/><rect fill="#365a49" x="0" y="489.5" width="12.2" height="24.65" shape-rendering="crispEdges"/><rect fill="#365a49" x="12.2" y="489.5" width="36.6" height="24.65" shape-rendering="crispEdges"/><rect fill="#365a49" x="48.8" y="489.5" width="48.8" height="24.65" shape-rendering="crispEdges"/><rect fill="#334643" x="97.6" y="489.5" width="36.6" height="24.65" shape-rendering="crispEdges"/><rect fill="#334643" x="134.2" y="489.5" width="48.8" height="24.65" shape-rendering="crispEdges"/><rect fill="#334643" x="183" y="489.5" width="61" height="24.65" shape-rendering="crispEdges"/><rect fill="#334643" x="244" y="489.5" width="12.2" height="24.65" shape-rendering="crispEdges"/><rect fill="#334643" x="256.2" y="489.5" width="12.2" height="24.65" shape-rendering="crispEdges"/><rect fill="#3b7c53" x="268.4" y="489.5" width="36.6" height="24.65" shape-rendering="crispEdges"/><rect fill="#334643" x="305" y="489.5" width="12.2" height="24.65" shape-rendering="crispEdges"/><rect fill="#334643" x="317.2" y="489.5" width="12.2" height="24.65" shape-rendering="crispEdges"/><rect fill="#334643" x="329.4" y="489.5" width="402.6" height="24.65" shape-rendering="crispEdges"/><rect fill="#282a36" x="0" y="513.9" width="732" height="24.65" shape-rendering="crispEdges"/><rect fill="#282a36" x="0" y="538.3" width="732" height="24.65" shape-rendering="crispEdges"/><rect fill="#282a36" x="0" y="562.7" width="732" height="24.65" shape-rendering="crispEdges"/><rect fill="#282a36" x="0" y="587.1" width="732" height="24.65" shape-rendering="crispEdges"/><rect fill="#282a36" x="0" y="611.5" width="732" height="24.65" shape-rendering="crispEdges"/><rect fill="#282a36" x="0" y="635.9" width="732" height="24.65" shape-rendering="crispEdges"/><rect fill="#282a36" x="0" y="660.3" width="732" height="24.65" shape-rendering="crispEdges"/><rect fill="#282a36" x="0" y="684.7" width="732" height="24.65" shape-rendering="crispEdges"/><rect fill="#282a36" x="0" y="709.1" width="732" height="24.65" shape-rendering="crispEdges"/><rect fill="#282a36" x="0" y="733.5" width="732" height="24.65" shape-rendering="crispEdges"/><rect fill="#282a36" x="0" y="757.9" width="732" height="24.65" shape-rendering="crispEdges"/><rect fill="#282a36" x="0" y="782.3" width="732" height="24.65" shape-rendering="crispEdges"/><rect fill="#282a36" x="0" y="806.7" width="732" height="24.65" shape-rendering="crispEdges"/><rect fill="#282a36" x="0" y="831.1" width="732" height="24.65" shape-rendering="crispEdges"/><rect fill="#282a36" x="0" y="855.5" width="732" height="24.65" shape-rendering="crispEdges"/><rect fill="#282a36" x="0" y="879.9" width="732" height="24.65" shape-rendering="crispEdges"/><rect fill="#282a36" x="0" y="904.3" width="732" height="24.65" shape-rendering="crispEdges"/><rect fill="#282a36" x="0" y="928.7" width="732" height="24.65" shape-rendering="crispEdges"/><rect fill="#282a36" x="0" y="953.1" width="732" height="24.65" shape-rendering="crispEdges"/><rect fill="#282a36" x="0" y="977.5" width="732" height="24.65" shape-rendering="crispEdges"/><rect fill="#282a36" x="0" y="1001.9" width="732" height="24.65" shape-rendering="crispEdges"/><rect fill="#282a36" x="0" y="1026.3" width="732" height="24.65" shape-rendering="crispEdges"/><rect fill="#282a36" x="0" y="1050.7" width="732" height="24.65" shape-rendering="crispEdges"/><rect fill="#282a36" x="0" y="1075.1" width="732" height="24.65" shape-rendering="crispEdges"/><rect fill="#282a36" x="0" y="1099.5" width="732" height="24.65" shape-rendering="crispEdges"/><rect fill="#282a36" x="0" y="1123.9" width="732" height="24.65" shape-rendering="crispEdges"/><rect fill="#282a36" x="0" y="1148.3" width="732" height="24.65" shape-rendering="crispEdges"/><rect fill="#282a36" x="0" y="1172.7" width="732" height="24.65" shape-rendering="crispEdges"/><rect fill="#282a36" x="0" y="1197.1" width="732" height="24.65" shape-rendering="crispEdges"/>
    <g class="terminal-matrix">
    <text class="terminal-r1" x="0" y="20" textLength="24.4" clip-path="url(#terminal-line-0)">📄&#160;</text><text class="terminal-r2" x="36.6" y="20" textLength="109.8" clip-path="url(#terminal-line-0)">hello2.py</text><text class="terminal-r1" x="146.4" y="20" textLength="24.4" clip-path="url(#terminal-line-0)">&#160;(</text><text class="terminal-r3" x="170.8" y="20" textLength="24.4" clip-path="url(#terminal-line-0)">+5</text><text class="terminal-r1" x="195.2" y="20" textLength="24.4" clip-path="url(#terminal-line-0)">,&#160;</text><text class="terminal-r4" x="219.6" y="20" textLength="24.4" clip-path="url(#terminal-line-0)">-4</text><text class="terminal-r1" x="244" y="20" textLength="12.2" clip-path="url(#terminal-line-0)">)</text><text class="terminal-r5" x="732" y="20" textLength="12.2" clip-path="url(#terminal-line-0)">
</text><text class="terminal-r6" x="0" y="44.4" textLength="732" clip-path="url(#terminal-line-1)">╍╍╍╍╍╍╍╍╍╍╍╍╍╍╍╍╍╍╍╍╍╍╍╍╍╍╍╍╍╍╍╍╍╍╍╍╍╍╍╍╍╍╍╍╍╍╍╍╍╍╍╍╍╍╍╍╍╍╍╍</text><text class="terminal-r5" x="732" y="44.4" textLength="12.2" clip-path="url(#terminal-line-1)">
</text><text class="terminal-r7" x="0" y="68.8" textLength="12.2" clip-path="url(#terminal-line-2)">▎</text><text class="terminal-r8" x="12.2" y="68.8" textLength="24.4" clip-path="url(#terminal-line-2)">1&#160;</text><text class="terminal-r8" x="36.6" y="68.8" textLength="36.6" clip-path="url(#terminal-line-2)">&#160;1&#160;</text><text class="terminal-r5" x="732" y="68.8" textLength="12.2" clip-path="url(#terminal-line-2)">
</text><text class="terminal-r10" x="0" y="93.2" textLength="12.2" clip-path="url(#terminal-line-3)">▎</text><text class="terminal-r11" x="12.2" y="93.2" textLength="24.4" clip-path="url(#terminal-line-3)">2&#160;</text><text class="terminal-r12" x="73.2" y="93.2" textLength="36.6" clip-path="url(#terminal-line-3)">&#160;-&#160;</text><text class="terminal-r13" x="109.8" y="93.2" textLength="36.6" clip-path="url(#terminal-line-3)">def</text><text class="terminal-r14" x="158.6" y="93.2" textLength="61" clip-path="url(#terminal-line-3)">greet</text><text class="terminal-r1" x="219.6" y="93.2" textLength="36.6" clip-path="url(#terminal-line-3)">():</text><text class="terminal-r5" x="732" y="93.2" textLength="12.2" clip-path="url(#terminal-line-3)">
</text><text class="terminal-r10" x="0" y="117.6" textLength="12.2" clip-path="url(#terminal-line-4)">▎</text><text class="terminal-r11" x="12.2" y="117.6" textLength="24.4" clip-path="url(#terminal-line-4)">3&#160;</text><text class="terminal-r12" x="73.2" y="117.6" textLength="36.6" clip-path="url(#terminal-line-4)">&#160;-&#160;</text><text class="terminal-r13" x="158.6" y="117.6" textLength="61" clip-path="url(#terminal-line-4)">print</text><text class="terminal-r15" x="231.8" y="117.6" textLength="12.2" clip-path="url(#terminal-line-4)">&quot;</text><text class="terminal-r15" x="244" y="117.6" textLength="73.2" clip-path="url(#terminal-line-4)">Hello!</text><text class="terminal-r15" x="317.2" y="117.6" textLength="12.2" clip-path="url(#terminal-line-4)">&quot;</text><text class="terminal-r5" x="732" y="117.6" textLength="12.2" clip-path="url(#terminal-line-4)">
</text><text class="terminal-r16" x="0" y="142" textLength="12.2" clip-path="url(#terminal-line-5)">▎</text><text class="terminal-r17" x="36.6" y="142" textLength="36.6" clip-path="url(#terminal-line-5)">&#160;2&#160;</text><text class="terminal-r18" x="73.2" y="142" textLength="36.6" clip-path="url(#terminal-line-5)">&#160;+&#160;</text><text class="terminal-r13" x="109.8" y="142" textLength="36.6" clip-path="url(#terminal-line-5)">def</text><text class="terminal-r14" x="158.6" y="142" textLength="61" clip-path="url(#terminal-line-5)">greet</text><text class="terminal-r1" x="219.6" y="142" textLength="12.2" clip-path="url(#terminal-line-5)">(</text><text class="terminal-r19" x="231.8" y="142" textLength="48.8" clip-path="url(#terminal-line-5)">name</text><text class="terminal-r1" x="280.6" y="142" textLength="12.2" clip-path="url(#terminal-line-5)">:</text><text class="terminal-r13" x="292.8" y="142" textLength="36.6" clip-path="url(#terminal-line-5)">str</text><text class="terminal-r1" x="329.4" y="142" textLength="24.4" clip-path="url(#terminal-line-5)">):</text><text class="terminal-r5" x="732" y="142" textLength="12.2" clip-path="url(#terminal-line-5)">
</text><text class="terminal-r16" x="0" y="166.4" textLength="12.2" clip-path="url(#terminal-line-6)">▎</text><text class="terminal-r17" x="36.6" y="166.4" textLength="36.6" clip-path="url(#terminal-line-6)">&#160;3&#160;</text><text class="terminal-r18" x="73.2" y="166.4" textLength="36.6" clip-path="url(#terminal-line-6)">&#160;+&#160;</text><text class="terminal-r20" x="158.6" y="166.4" textLength="219.6" clip-path="url(#terminal-line-6)">&quot;&quot;&quot;Greet&#160;anyone&quot;&quot;&quot;</text><text class="terminal-r5" x="732" y="166.4" textLength="12.2" clip-path="url(#terminal-line-6)">
</text><text class="terminal-r16" x="0" y="190.8" textLength="12.2" clip-path="url(#terminal-line-7)">▎</text><text class="terminal-r17" x="36.6" y="190.8" textLength="36.6" clip-path="url(#terminal-line-7)">&#160;4&#160;</text><text class="terminal-r18" x="73.2" y="190.8" textLength="36.6" clip-path="url(#terminal-line-7)">&#160;+&#160;</text><text class="terminal-r13" x="158.6" y="190.8" textLength="61" clip-path="url(#terminal-line-7)">print</text><text class="terminal-r1" x="219.6" y="190.8" textLength="12.2" clip-path="url(#terminal-line-7)">(</text><text class="terminal-r18" x="231.8" y="190.8" textLength="12.2" clip-path="url(#terminal-line-7)">f</text><text class="terminal-r21" x="244" y="190.8" textLength="12.2" clip-path="url(#terminal-line-7)">&quot;</text><text class="terminal-r21" x="256.2" y="190.8" textLength="85.4" clip-path="url(#terminal-line-7)">Hello,&#160;</text><text class="terminal-r18" x="341.6" y="190.8" textLength="12.2" clip-path="url(#terminal-line-7)">{</text><text class="terminal-r19" x="353.8" y="190.8" textLength="48.8" clip-path="url(#terminal-line-7)">name</text><text class="terminal-r18" x="402.6" y="190.8" textLength="12.2" clip-path="url(#terminal-line-7)">}</text><text class="terminal-r21" x="414.8" y="190.8" textLength="12.2" clip-path="url(#terminal-line-7)">!</text><text class="terminal-r21" x="427" y="190.8" textLength="12.2" clip-path="url(#terminal-line-7)">&quot;</text><text class="terminal-r1" x="439.2" y="190.8" textLength="12.2" clip-path="url(#terminal-line-7)">)</text><text class="terminal-r5" x="732" y="190.8" textLength="12.2" clip-path="url(#terminal-line-7)">
</text><text class="terminal-r7" x="0" y="215.2" textLength="12.2" clip-path="url(#terminal-line-8)">▎</text><text class="terminal-r8" x="12.2" y="215.2" textLength="24.4" clip-path="url(#terminal-line-8)">4&#160;</text><text class="terminal-r8" x="36.6" y="215.2" textLength="36.6" clip-path="url(#terminal-line-8)">&#160;5&#160;</text><text class="terminal-r5" x="732" y="215.2" textLength="12.2" clip-path="url(#terminal-line-8)">
</text><text class="terminal-r10" x="0" y="239.6" textLength="12.2" clip-path="url(#terminal-line-9)">▎</text><text class="terminal-r11" x="12.2" y="239.6" textLength="24.4" clip-path="url(#terminal-line-9)">5&#160;</text><text class="terminal-r12" x="73.2" y="239.6" textLength="36.6" clip-path="url(#terminal-line-9)">&#160;-&#160;</text><text class="terminal-r19" x="109.8" y="239.6" textLength="61" clip-path="url(#terminal-line-9)">greet</text><text class="terminal-r1" x="170.8" y="239.6" textLength="24.4" clip-path="url(#terminal-line-9)">()</text><text class="terminal-r5" x="732" y="239.6" textLength="12.2" clip-path="url(#terminal-line-9)">
</text><text class="terminal-r16" x="0" y="264" textLength="12.2" clip-path="url(#terminal-line-10)">▎</text><text class="terminal-r17" x="36.6" y="264" textLength="36.6" clip-path="url(#terminal-line-10)">&#160;6&#160;</text><text class="terminal-r18" x="73.2" y="264" textLength="36.6" clip-path="url(#terminal-line-10)">&#160;+&#160;</text><text class="terminal-r19" x="109.8" y="264" textLength="61" clip-path="url(#terminal-line-10)">greet</text><text class="terminal-r1" x="170.8" y="264" textLength="12.2" clip-path="url(#terminal-line-10)">(</text><text class="terminal-r18" x="183" y="264" textLength="12.2" clip-path="url(#terminal-line-10)">&#x27;</text><text class="terminal-r18" x="195.2" y="264" textLength="48.8" clip-path="url(#terminal-line-10)">Will</text><text class="terminal-r18" x="244" y="264" textLength="12.2" clip-path="url(#terminal-line-10)">&#x27;</text><text class="terminal-r1" x="256.2" y="264" textLength="12.2" clip-path="url(#terminal-line-10)">)</text><text class="terminal-r5" x="732" y="264" textLength="12.2" clip-path="url(#terminal-line-10)">
</text><text class="terminal-r7" x="0" y="288.4" textLength="12.2" clip-path="url(#terminal-line-11)">▎</text><text class="terminal-r8" x="12.2" y="288.4" textLength="24.4" clip-path="url(#terminal-line-11)">6&#160;</text><text class="terminal-r8" x="36.6" y="288.4" textLength="36.6" clip-path="url(#terminal-line-11)">&#160;7&#160;</text><text class="terminal-r5" x="732" y="288.4" textLength="12.2" clip-path="url(#terminal-line-11)">
</text><text class="terminal-r7" x="0" y="312.8" textLength="12.2" clip-path="url(#terminal-line-12)">▎</text><text class="terminal-r8" x="12.2" y="312.8" textLength="24.4" clip-path="url(#terminal-line-12)">7&#160;</text><text class="terminal-r8" x="36.6" y="312.8" textLength="36.6" clip-path="url(#terminal-line-12)">&#160;8&#160;</text><text class="terminal-r22" x="109.8" y="312.8" textLength="463.6" clip-path="url(#terminal-line-12)">#&#160;Heard&#160;joke&#160;once:&#160;Man&#160;goes&#160;to&#160;doctor.</text><text class="terminal-r5" x="732" y="312.8" textLength="12.2" clip-path="url(#terminal-line-12)">
</text><text class="terminal-r7" x="0" y="337.2" textLength="12.2" clip-path="url(#terminal-line-13)">▎</text><text class="terminal-r8" x="12.2" y="337.2" textLength="24.4" clip-path="url(#terminal-line-13)">8&#160;</text><text class="terminal-r8" x="36.6" y="337.2" textLength="36.6" clip-path="url(#terminal-line-13)">&#160;9&#160;</text><text class="terminal-r22" x="109.8" y="337.2" textLength="268.4" clip-path="url(#terminal-line-13)">#&#160;Says&#160;he&#x27;s&#160;depressed.</text><text class="terminal-r5" x="732" y="337.2" textLength="12.2" clip-path="url(#terminal-line-13)">
</text><text class="terminal-r23" x="341.6" y="361.6" textLength="12.2" clip-path="url(#terminal-line-14)">⋮</text><text class="terminal-r5" x="732" y="361.6" textLength="12.2" clip-path="url(#terminal-line-14)">
</text><text class="terminal-r7" x="0" y="386" textLength="12.2" clip-path="url(#terminal-line-15)">▎</text><text class="terminal-r8" x="12.2" y="386" textLength="36.6" clip-path="url(#terminal-line-15)">12&#160;</text><text class="terminal-r8" x="48.8" y="386" textLength="48.8" clip-path="url(#terminal-line-15)">&#160;13&#160;</text><text class="terminal-r22" x="134.2" y="386" textLength="597.8" clip-path="url(#terminal-line-15)">#&#160;Man&#160;bursts&#160;into&#160;tears.&#160;Says:&#160;&#x27;But&#160;doctor...&#160;I&#160;a</text><text class="terminal-r5" x="732" y="386" textLength="12.2" clip-path="url(#terminal-line-15)">
</text><text class="terminal-r7" x="0" y="410.4" textLength="12.2" clip-path="url(#terminal-line-16)">▎</text><text class="terminal-r9" x="97.6" y="410.4" textLength="36.6" clip-path="url(#terminal-line-16)">&#160;↪&#160;</text><text class="terminal-r22" x="134.2" y="410.4" textLength="146.4" clip-path="url(#terminal-line-16)">m&#160;Pagliacci.</text><text class="terminal-r5" x="732" y="410.4" textLength="12.2" clip-path="url(#terminal-line-16)">
</text><text class="terminal-r7" x="0" y="434.8" textLength="12.2" clip-path="url(#terminal-line-17)">▎</text><text class="terminal-r8" x="12.2" y="434.8" textLength="36.6" clip-path="url(#terminal-line-17)">13&#160;</text><text class="terminal-r8" x="48.8" y="434.8" textLength="48.8" clip-path="url(#terminal-line-17)">&#160;14&#160;</text><text class="terminal-r5" x="732" y="434.8" textLength="12.2" clip-path="url(#terminal-line-17)">
</text><text class="terminal-r7" x="0" y="459.2" textLength="12.2" clip-path="url(#terminal-line-18)">▎</text><text class="terminal-r8" x="12.2" y="459.2" textLength="36.6" clip-path="url(#terminal-line-18)">14&#160;</text><text class="terminal-r8" x="48.8" y="459.2" textLength="48.8" clip-path="url(#terminal-line-18)">&#160;15&#160;</text><text class="terminal-r13" x="134.2" y="459.2" textLength="36.6" clip-path="url(#terminal-line-18)">for</text><text class="terminal-r19" x="183" y="459.2" textLength="12.2" clip-path="url(#terminal-line-18)">n</text><text class="terminal-r4" x="207.4" y="459.2" textLength="24.4" clip-path="url(#terminal-line-18)">in</text><text class="terminal-r13" x="244" y="459.2" textLength="61" clip-path="url(#terminal-line-18)">range</text><text class="terminal-r1" x="305" y="459.2" textLength="12.2" clip-path="url(#terminal-line-18)">(</text><text class="terminal-r24" x="317.2" y="459.2" textLength="24.4" clip-path="url(#terminal-line-18)">10</text><text class="terminal-r1" x="341.6" y="459.2" textLength="24.4" clip-path="url(#terminal-line-18)">):</text><text class="terminal-r5" x="732" y="459.2" textLength="12.2" clip-path="url(#terminal-line-18)">
</text><text class="terminal-r10" x="0" y="483.6" textLength="12.2" clip-path="url(#terminal-line-19)">▎</text><text class="terminal-r11" x="12.2" y="483.6" textLength="36.6" clip-path="url(#terminal-line-19)">15&#160;</text><text class="terminal-r12" x="97.6" y="483.6" textLength="36.6" clip-path="url(#terminal-line-19)">&#160;-&#160;</text><text class="terminal-r13" x="183" y="483.6" textLength="61" clip-path="url(#terminal-line-19)">print</text><text class="terminal-r1" x="244" y="483.6" textLength="12.2" clip-path="url(#terminal-line-19)">(</text><text class="terminal-r15" x="256.2" y="483.6" textLength="12.2" clip-path="url(#terminal-line-19)">&quot;</text><text class="terminal-r25" x="268.4" y="483.6" textLength="36.6" clip-path="url(#terminal-line-19)">Foo</text><text class="terminal-r15" x="305" y="483.6" textLength="12.2" clip-path="url(#terminal-line-19)">&quot;</text><text class="terminal-r1" x="317.2" y="483.6" textLength="12.2" clip-path="url(#terminal-line-19)">)</text><text class="terminal-r5" x="732" y="483.6" textLength="12.2" clip-path="url(#terminal-line-19)">
</text><text class="terminal-r16" x="0" y="508" textLength="12.2" clip-path="url(#terminal-line-20)">▎</text><text class="terminal-r17" x="48.8" y="508" textLength="48.8" clip-path="url(#terminal-line-20)">&#160;16&#160;</text><text class="terminal-r18" x="97.6" y="508" textLength="36.6" clip-path="url(#terminal-line-20)">&#160;+&#160;</text><text class="terminal-r13" x="183" y="508" textLength="61" clip-path="url(#terminal-line-20)">print</text><text class="terminal-r1" x="244" y="508" textLength="12.2" clip-path="url(#terminal-line-20)">(</text><text class="terminal-r21" x="256.2" y="508" textLength="12.2" clip-path="url(#terminal-line-20)">&quot;</text><text class="terminal-r26" x="268.4" y="508" textLength="36.6" clip-path="url(#terminal-line-20)">Bar</text><text class="terminal-r21" x="305" y="508" textLength="12.2" clip-path="url(#terminal-line-20)">&quot;</text><text class="terminal-r1" x="317.2" y="508" textLength="12.2" clip-path="url(#terminal-line-20)">)</text><text class="terminal-r5" x="732" y="508" textLength="12.2" clip-path="url(#terminal-line-20)">
</text><text class="terminal-r5" x="732" y="532.4" textLength="12.2" clip-path="url(#terminal-line-21)">
</text><text class="terminal-r5" x="732" y="556.8" textLength="12.2" clip-path="url(#terminal-line-22)">
</text><text class="terminal-r5" x="732" y="581.2" textLength="12.2" clip-path="url(#terminal-line-23)">
</text><text class="terminal-r5" x="732" y="605.6" textLength="12.2" clip-path="url(#terminal-line-24)">
</text><text class="terminal-r5" x="732" y="630" textLength="12.2" clip-path="url(#terminal-line-25)">
</text><text class="terminal-r5" x="732" y="654.4" textLength="12.2" clip-path="url(#terminal-line-26)">
</text><text class="terminal-r5" x="732" y="678.8" textLength="12.2" clip-path="url(#terminal-line-27)">
</text><text class="terminal-r5" x="732" y="703.2" textLength="12.2" clip-path="url(#terminal-line-28)">
</text><text class="terminal-r5" x="732" y="727.6" textLength="12.2" clip-path="url(#terminal-line-29)">
</text><text class="terminal-r5" x="732" y="752" textLength="12.2" clip-path="url(#terminal-line-30)">
</text><text class="terminal-r5" x="732" y="776.4" textLength="12.2" clip-path="url(#terminal-line-31)">
</text><text class="terminal-r5" x="732" y="800.8" textLength="12.2" clip-path="url(#terminal-line-32)">
</text><text class="terminal-r5" x="732" y="825.2" textLength="12.2" clip-path="url(#terminal-line-33)">
</text><text class="terminal-r5" x="732" y="849.6" textLength="12.2" clip-path="url(#terminal-line-34)">
</text><text class="terminal-r5" x="732" y="874" textLength="12.2" clip-path="url(#terminal-line-35)">
</text><text class="terminal-r5" x="732" y="898.4" textLength="12.2" clip-path="url(#terminal-line-36)">
</text><text class="terminal-r5" x="732" y="922.8" textLength="12.2" clip-path="url(#terminal-line-37)">
</text><text class="terminal-r5" x="732" y="947.2" textLength="12.2" clip-path="url(#terminal-line-38)">
</text><text class="terminal-r5" x="732" y="971.6" textLength="12.2" clip-path="url(#terminal-line-39)">
</text><text class="terminal-r5" x="732" y="996" textLength="12.2" clip-path="url(#terminal-line-40)">
</text><text class="terminal-r5" x="732" y="1020.4" textLength="12.2" clip-path="url(#terminal-line-41)">
</text><text class="terminal-r5" x="732" y="1044.8" textLength="12.2" clip-path="url(#terminal-line-42)">
</text><text class="terminal-r5" x="732" y="1069.2" textLength="12.2" clip-path="url(#terminal-line-43)">
</text><text class="terminal-r5" x="732" y="1093.6" textLength="12.2" clip-path="url(#terminal-line-44)">
</text><text class="terminal-r5" x="732" y="1118" textLength="12.2" clip-path="url(#terminal-line-45)">
</text><text class="terminal-r5" x="732" y="1142.4" textLength="12.2" clip-path="url(#terminal-line-46)">
</text><text class="terminal-r5" x="732" y="1166.8" textLength="12.2" clip-path="url(#terminal-line-47)">
</text><text class="terminal-r5" x="732" y="1191.2" textLength="12.2" clip-path="url(#terminal-line-48)">
</text>
    </g>
    </g>
</svg>
